<mxfile host="app.diagrams.net" modified="2022-05-01T07:49:46.255Z" agent="5.0 (Windows NT 10.0; Win64; x64) AppleWebKit/537.36 (KHTML, like Gecko) Chrome/101.0.4951.41 Safari/537.36 Edg/101.0.1210.32" etag="GxKh2mXK_5Fx7kLmSN2m" version="17.5.0" type="github">
  <diagram id="vwK4uNXO9dX0JLoXoTv2" name="Page-1">
    <mxGraphModel dx="953" dy="1873" grid="1" gridSize="10" guides="1" tooltips="1" connect="1" arrows="1" fold="1" page="1" pageScale="1" pageWidth="827" pageHeight="1169" math="0" shadow="0">
      <root>
        <mxCell id="0" />
        <mxCell id="1" parent="0" />
        <mxCell id="t2vM0j-yHt9iX_TJ1QTP-2" value="" style="endArrow=classic;html=1;rounded=0;" edge="1" parent="1">
          <mxGeometry width="50" height="50" relative="1" as="geometry">
            <mxPoint x="160" y="2140" as="sourcePoint" />
            <mxPoint x="160" y="-60" as="targetPoint" />
          </mxGeometry>
        </mxCell>
        <mxCell id="t2vM0j-yHt9iX_TJ1QTP-3" value="" style="endArrow=classic;html=1;rounded=0;" edge="1" parent="1">
          <mxGeometry width="50" height="50" relative="1" as="geometry">
            <mxPoint x="160" as="sourcePoint" />
            <mxPoint x="1620" as="targetPoint" />
          </mxGeometry>
        </mxCell>
        <mxCell id="t2vM0j-yHt9iX_TJ1QTP-4" value="" style="endArrow=classic;html=1;rounded=0;" edge="1" parent="1">
          <mxGeometry width="50" height="50" relative="1" as="geometry">
            <mxPoint x="160" y="80" as="sourcePoint" />
            <mxPoint x="1620" y="80" as="targetPoint" />
          </mxGeometry>
        </mxCell>
        <mxCell id="t2vM0j-yHt9iX_TJ1QTP-5" value="" style="endArrow=classic;html=1;rounded=0;" edge="1" parent="1">
          <mxGeometry width="50" height="50" relative="1" as="geometry">
            <mxPoint x="160" y="160" as="sourcePoint" />
            <mxPoint x="1610" y="160" as="targetPoint" />
          </mxGeometry>
        </mxCell>
        <mxCell id="t2vM0j-yHt9iX_TJ1QTP-6" value="" style="endArrow=classic;html=1;rounded=0;" edge="1" parent="1">
          <mxGeometry width="50" height="50" relative="1" as="geometry">
            <mxPoint x="160" y="240" as="sourcePoint" />
            <mxPoint x="1620" y="240" as="targetPoint" />
          </mxGeometry>
        </mxCell>
        <mxCell id="t2vM0j-yHt9iX_TJ1QTP-7" value="" style="endArrow=classic;html=1;rounded=0;" edge="1" parent="1">
          <mxGeometry width="50" height="50" relative="1" as="geometry">
            <mxPoint x="160" y="320" as="sourcePoint" />
            <mxPoint x="1620" y="320" as="targetPoint" />
          </mxGeometry>
        </mxCell>
        <mxCell id="t2vM0j-yHt9iX_TJ1QTP-8" value="" style="endArrow=classic;html=1;rounded=0;" edge="1" parent="1">
          <mxGeometry width="50" height="50" relative="1" as="geometry">
            <mxPoint x="160" y="400" as="sourcePoint" />
            <mxPoint x="1620" y="400" as="targetPoint" />
          </mxGeometry>
        </mxCell>
        <mxCell id="t2vM0j-yHt9iX_TJ1QTP-9" value="" style="endArrow=classic;html=1;rounded=0;" edge="1" parent="1">
          <mxGeometry width="50" height="50" relative="1" as="geometry">
            <mxPoint x="160" y="480" as="sourcePoint" />
            <mxPoint x="1630" y="480" as="targetPoint" />
          </mxGeometry>
        </mxCell>
        <mxCell id="t2vM0j-yHt9iX_TJ1QTP-10" value="" style="endArrow=classic;html=1;rounded=0;" edge="1" parent="1">
          <mxGeometry width="50" height="50" relative="1" as="geometry">
            <mxPoint x="160" y="560" as="sourcePoint" />
            <mxPoint x="1630" y="560" as="targetPoint" />
          </mxGeometry>
        </mxCell>
        <mxCell id="t2vM0j-yHt9iX_TJ1QTP-11" value="" style="endArrow=classic;html=1;rounded=0;" edge="1" parent="1">
          <mxGeometry width="50" height="50" relative="1" as="geometry">
            <mxPoint x="160" y="640" as="sourcePoint" />
            <mxPoint x="1620" y="640" as="targetPoint" />
          </mxGeometry>
        </mxCell>
        <mxCell id="t2vM0j-yHt9iX_TJ1QTP-12" value="MI" style="text;html=1;strokeColor=none;fillColor=none;align=center;verticalAlign=middle;whiteSpace=wrap;rounded=0;" vertex="1" parent="1">
          <mxGeometry x="100" y="-30" width="60" height="30" as="geometry" />
        </mxCell>
        <mxCell id="t2vM0j-yHt9iX_TJ1QTP-17" value="UI" style="text;html=1;strokeColor=none;fillColor=none;align=center;verticalAlign=middle;whiteSpace=wrap;rounded=0;" vertex="1" parent="1">
          <mxGeometry x="100" y="50" width="60" height="30" as="geometry" />
        </mxCell>
        <mxCell id="t2vM0j-yHt9iX_TJ1QTP-18" value="UK" style="text;html=1;strokeColor=none;fillColor=none;align=center;verticalAlign=middle;whiteSpace=wrap;rounded=0;" vertex="1" parent="1">
          <mxGeometry x="100" y="130" width="60" height="30" as="geometry" />
        </mxCell>
        <mxCell id="t2vM0j-yHt9iX_TJ1QTP-19" value="CU" style="text;html=1;strokeColor=none;fillColor=none;align=center;verticalAlign=middle;whiteSpace=wrap;rounded=0;" vertex="1" parent="1">
          <mxGeometry x="100" y="210" width="60" height="30" as="geometry" />
        </mxCell>
        <mxCell id="t2vM0j-yHt9iX_TJ1QTP-20" value="UG" style="text;html=1;strokeColor=none;fillColor=none;align=center;verticalAlign=middle;whiteSpace=wrap;rounded=0;" vertex="1" parent="1">
          <mxGeometry x="100" y="290" width="60" height="30" as="geometry" />
        </mxCell>
        <mxCell id="t2vM0j-yHt9iX_TJ1QTP-21" value="UL" style="text;html=1;strokeColor=none;fillColor=none;align=center;verticalAlign=middle;whiteSpace=wrap;rounded=0;" vertex="1" parent="1">
          <mxGeometry x="100" y="370" width="60" height="30" as="geometry" />
        </mxCell>
        <mxCell id="t2vM0j-yHt9iX_TJ1QTP-22" value="MD1" style="text;html=1;strokeColor=none;fillColor=none;align=center;verticalAlign=middle;whiteSpace=wrap;rounded=0;" vertex="1" parent="1">
          <mxGeometry x="100" y="450" width="60" height="30" as="geometry" />
        </mxCell>
        <mxCell id="t2vM0j-yHt9iX_TJ1QTP-23" value="MD2" style="text;html=1;strokeColor=none;fillColor=none;align=center;verticalAlign=middle;whiteSpace=wrap;rounded=0;" vertex="1" parent="1">
          <mxGeometry x="100" y="530" width="60" height="30" as="geometry" />
        </mxCell>
        <mxCell id="t2vM0j-yHt9iX_TJ1QTP-24" value="MD3" style="text;html=1;strokeColor=none;fillColor=none;align=center;verticalAlign=middle;whiteSpace=wrap;rounded=0;" vertex="1" parent="1">
          <mxGeometry x="100" y="610" width="60" height="30" as="geometry" />
        </mxCell>
        <mxCell id="t2vM0j-yHt9iX_TJ1QTP-25" value="" style="endArrow=classic;html=1;rounded=0;" edge="1" parent="1">
          <mxGeometry width="50" height="50" relative="1" as="geometry">
            <mxPoint x="160" y="720" as="sourcePoint" />
            <mxPoint x="1624" y="720" as="targetPoint" />
          </mxGeometry>
        </mxCell>
        <mxCell id="t2vM0j-yHt9iX_TJ1QTP-26" value="" style="endArrow=classic;html=1;rounded=0;" edge="1" parent="1">
          <mxGeometry width="50" height="50" relative="1" as="geometry">
            <mxPoint x="160" y="800" as="sourcePoint" />
            <mxPoint x="1620" y="800" as="targetPoint" />
          </mxGeometry>
        </mxCell>
        <mxCell id="t2vM0j-yHt9iX_TJ1QTP-27" value="" style="endArrow=classic;html=1;rounded=0;" edge="1" parent="1">
          <mxGeometry width="50" height="50" relative="1" as="geometry">
            <mxPoint x="160" y="879.9999999999995" as="sourcePoint" />
            <mxPoint x="1630" y="880" as="targetPoint" />
          </mxGeometry>
        </mxCell>
        <mxCell id="t2vM0j-yHt9iX_TJ1QTP-28" value="" style="endArrow=classic;html=1;rounded=0;" edge="1" parent="1">
          <mxGeometry width="50" height="50" relative="1" as="geometry">
            <mxPoint x="160" y="959.9999999999995" as="sourcePoint" />
            <mxPoint x="1630" y="960" as="targetPoint" />
          </mxGeometry>
        </mxCell>
        <mxCell id="t2vM0j-yHt9iX_TJ1QTP-29" value="" style="endArrow=classic;html=1;rounded=0;" edge="1" parent="1">
          <mxGeometry width="50" height="50" relative="1" as="geometry">
            <mxPoint x="160" y="1040" as="sourcePoint" />
            <mxPoint x="1620" y="1040" as="targetPoint" />
          </mxGeometry>
        </mxCell>
        <mxCell id="t2vM0j-yHt9iX_TJ1QTP-30" value="" style="endArrow=classic;html=1;rounded=0;" edge="1" parent="1">
          <mxGeometry width="50" height="50" relative="1" as="geometry">
            <mxPoint x="160" y="1120" as="sourcePoint" />
            <mxPoint x="1620" y="1120" as="targetPoint" />
          </mxGeometry>
        </mxCell>
        <mxCell id="t2vM0j-yHt9iX_TJ1QTP-31" value="" style="endArrow=classic;html=1;rounded=0;" edge="1" parent="1">
          <mxGeometry width="50" height="50" relative="1" as="geometry">
            <mxPoint x="160" y="1199.9999999999995" as="sourcePoint" />
            <mxPoint x="1620" y="1200" as="targetPoint" />
          </mxGeometry>
        </mxCell>
        <mxCell id="t2vM0j-yHt9iX_TJ1QTP-32" value="" style="endArrow=classic;html=1;rounded=0;" edge="1" parent="1">
          <mxGeometry width="50" height="50" relative="1" as="geometry">
            <mxPoint x="160" y="1279.9999999999995" as="sourcePoint" />
            <mxPoint x="1620" y="1280" as="targetPoint" />
          </mxGeometry>
        </mxCell>
        <mxCell id="t2vM0j-yHt9iX_TJ1QTP-33" value="" style="endArrow=classic;html=1;rounded=0;" edge="1" parent="1">
          <mxGeometry width="50" height="50" relative="1" as="geometry">
            <mxPoint x="160" y="1360" as="sourcePoint" />
            <mxPoint x="1620" y="1360" as="targetPoint" />
          </mxGeometry>
        </mxCell>
        <mxCell id="t2vM0j-yHt9iX_TJ1QTP-34" value="" style="endArrow=classic;html=1;rounded=0;" edge="1" parent="1">
          <mxGeometry width="50" height="50" relative="1" as="geometry">
            <mxPoint x="160" y="1440" as="sourcePoint" />
            <mxPoint x="1620" y="1440" as="targetPoint" />
          </mxGeometry>
        </mxCell>
        <mxCell id="t2vM0j-yHt9iX_TJ1QTP-35" value="" style="endArrow=classic;html=1;rounded=0;" edge="1" parent="1">
          <mxGeometry width="50" height="50" relative="1" as="geometry">
            <mxPoint x="160" y="1519.9999999999995" as="sourcePoint" />
            <mxPoint x="1620" y="1520" as="targetPoint" />
          </mxGeometry>
        </mxCell>
        <mxCell id="t2vM0j-yHt9iX_TJ1QTP-36" value="" style="endArrow=classic;html=1;rounded=0;" edge="1" parent="1">
          <mxGeometry width="50" height="50" relative="1" as="geometry">
            <mxPoint x="160" y="1599.9999999999995" as="sourcePoint" />
            <mxPoint x="1620" y="1600" as="targetPoint" />
          </mxGeometry>
        </mxCell>
        <mxCell id="t2vM0j-yHt9iX_TJ1QTP-41" value="MD4" style="text;html=1;strokeColor=none;fillColor=none;align=center;verticalAlign=middle;whiteSpace=wrap;rounded=0;" vertex="1" parent="1">
          <mxGeometry x="100" y="690" width="60" height="30" as="geometry" />
        </mxCell>
        <mxCell id="t2vM0j-yHt9iX_TJ1QTP-42" value="VR1" style="text;html=1;strokeColor=none;fillColor=none;align=center;verticalAlign=middle;whiteSpace=wrap;rounded=0;" vertex="1" parent="1">
          <mxGeometry x="100" y="770" width="60" height="30" as="geometry" />
        </mxCell>
        <mxCell id="t2vM0j-yHt9iX_TJ1QTP-43" value="VR2" style="text;html=1;strokeColor=none;fillColor=none;align=center;verticalAlign=middle;whiteSpace=wrap;rounded=0;" vertex="1" parent="1">
          <mxGeometry x="100" y="850" width="60" height="30" as="geometry" />
        </mxCell>
        <mxCell id="t2vM0j-yHt9iX_TJ1QTP-44" value="VR3" style="text;html=1;strokeColor=none;fillColor=none;align=center;verticalAlign=middle;whiteSpace=wrap;rounded=0;" vertex="1" parent="1">
          <mxGeometry x="100" y="930" width="60" height="30" as="geometry" />
        </mxCell>
        <mxCell id="t2vM0j-yHt9iX_TJ1QTP-45" value="VR4" style="text;html=1;strokeColor=none;fillColor=none;align=center;verticalAlign=middle;whiteSpace=wrap;rounded=0;" vertex="1" parent="1">
          <mxGeometry x="100" y="1010" width="60" height="30" as="geometry" />
        </mxCell>
        <mxCell id="t2vM0j-yHt9iX_TJ1QTP-46" value="VR5" style="text;html=1;strokeColor=none;fillColor=none;align=center;verticalAlign=middle;whiteSpace=wrap;rounded=0;" vertex="1" parent="1">
          <mxGeometry x="100" y="1090" width="60" height="30" as="geometry" />
        </mxCell>
        <mxCell id="t2vM0j-yHt9iX_TJ1QTP-47" value="VR6" style="text;html=1;strokeColor=none;fillColor=none;align=center;verticalAlign=middle;whiteSpace=wrap;rounded=0;" vertex="1" parent="1">
          <mxGeometry x="100" y="1170" width="60" height="30" as="geometry" />
        </mxCell>
        <mxCell id="t2vM0j-yHt9iX_TJ1QTP-48" value="VR7" style="text;html=1;strokeColor=none;fillColor=none;align=center;verticalAlign=middle;whiteSpace=wrap;rounded=0;" vertex="1" parent="1">
          <mxGeometry x="100" y="1250" width="60" height="30" as="geometry" />
        </mxCell>
        <mxCell id="t2vM0j-yHt9iX_TJ1QTP-49" value="VR8" style="text;html=1;strokeColor=none;fillColor=none;align=center;verticalAlign=middle;whiteSpace=wrap;rounded=0;" vertex="1" parent="1">
          <mxGeometry x="100" y="1330" width="60" height="30" as="geometry" />
        </mxCell>
        <mxCell id="t2vM0j-yHt9iX_TJ1QTP-59" value="SUM1" style="text;html=1;strokeColor=none;fillColor=none;align=center;verticalAlign=middle;whiteSpace=wrap;rounded=0;" vertex="1" parent="1">
          <mxGeometry x="100" y="1410" width="60" height="30" as="geometry" />
        </mxCell>
        <mxCell id="t2vM0j-yHt9iX_TJ1QTP-60" value="MUL1" style="text;html=1;strokeColor=none;fillColor=none;align=center;verticalAlign=middle;whiteSpace=wrap;rounded=0;" vertex="1" parent="1">
          <mxGeometry x="100" y="1490" width="60" height="30" as="geometry" />
        </mxCell>
        <mxCell id="t2vM0j-yHt9iX_TJ1QTP-61" value="DIV1" style="text;html=1;strokeColor=none;fillColor=none;align=center;verticalAlign=middle;whiteSpace=wrap;rounded=0;" vertex="1" parent="1">
          <mxGeometry x="100" y="1570" width="60" height="30" as="geometry" />
        </mxCell>
        <mxCell id="t2vM0j-yHt9iX_TJ1QTP-66" value="B" style="rounded=0;whiteSpace=wrap;html=1;" vertex="1" parent="1">
          <mxGeometry x="200" y="-240" width="20" height="40" as="geometry" />
        </mxCell>
        <mxCell id="t2vM0j-yHt9iX_TJ1QTP-67" value="G" style="rounded=0;whiteSpace=wrap;html=1;" vertex="1" parent="1">
          <mxGeometry x="280" y="-240" width="40" height="40" as="geometry" />
        </mxCell>
        <mxCell id="t2vM0j-yHt9iX_TJ1QTP-68" value="B" style="rounded=0;whiteSpace=wrap;html=1;" vertex="1" parent="1">
          <mxGeometry x="160" y="-40" width="20" height="40" as="geometry" />
        </mxCell>
        <mxCell id="t2vM0j-yHt9iX_TJ1QTP-69" value="B" style="rounded=0;whiteSpace=wrap;html=1;" vertex="1" parent="1">
          <mxGeometry x="180" y="-40" width="20" height="40" as="geometry" />
        </mxCell>
        <mxCell id="t2vM0j-yHt9iX_TJ1QTP-70" value="B" style="rounded=0;whiteSpace=wrap;html=1;" vertex="1" parent="1">
          <mxGeometry x="200" y="-40" width="20" height="40" as="geometry" />
        </mxCell>
        <mxCell id="t2vM0j-yHt9iX_TJ1QTP-71" value="B" style="rounded=0;whiteSpace=wrap;html=1;" vertex="1" parent="1">
          <mxGeometry x="220" y="-40" width="20" height="40" as="geometry" />
        </mxCell>
        <mxCell id="t2vM0j-yHt9iX_TJ1QTP-72" value="B" style="rounded=0;whiteSpace=wrap;html=1;" vertex="1" parent="1">
          <mxGeometry x="240" y="-40" width="20" height="40" as="geometry" />
        </mxCell>
        <mxCell id="t2vM0j-yHt9iX_TJ1QTP-73" value="B" style="rounded=0;whiteSpace=wrap;html=1;" vertex="1" parent="1">
          <mxGeometry x="260" y="-40" width="20" height="40" as="geometry" />
        </mxCell>
        <mxCell id="t2vM0j-yHt9iX_TJ1QTP-74" value="B" style="rounded=0;whiteSpace=wrap;html=1;" vertex="1" parent="1">
          <mxGeometry x="280" y="-40" width="20" height="40" as="geometry" />
        </mxCell>
        <mxCell id="t2vM0j-yHt9iX_TJ1QTP-75" value="B" style="rounded=0;whiteSpace=wrap;html=1;" vertex="1" parent="1">
          <mxGeometry x="300" y="-40" width="20" height="40" as="geometry" />
        </mxCell>
        <mxCell id="t2vM0j-yHt9iX_TJ1QTP-76" value="1" style="text;html=1;strokeColor=none;fillColor=none;align=center;verticalAlign=middle;whiteSpace=wrap;rounded=0;" vertex="1" parent="1">
          <mxGeometry x="160" y="-60" width="20" height="20" as="geometry" />
        </mxCell>
        <mxCell id="t2vM0j-yHt9iX_TJ1QTP-77" value="1" style="text;html=1;strokeColor=none;fillColor=none;align=center;verticalAlign=middle;whiteSpace=wrap;rounded=0;" vertex="1" parent="1">
          <mxGeometry x="200" y="-260" width="20" height="20" as="geometry" />
        </mxCell>
        <mxCell id="t2vM0j-yHt9iX_TJ1QTP-78" value="1" style="text;html=1;strokeColor=none;fillColor=none;align=center;verticalAlign=middle;whiteSpace=wrap;rounded=0;" vertex="1" parent="1">
          <mxGeometry x="280" y="-260" width="40" height="20" as="geometry" />
        </mxCell>
        <mxCell id="t2vM0j-yHt9iX_TJ1QTP-79" value="2" style="text;html=1;strokeColor=none;fillColor=none;align=center;verticalAlign=middle;whiteSpace=wrap;rounded=0;" vertex="1" parent="1">
          <mxGeometry x="180" y="-60" width="20" height="20" as="geometry" />
        </mxCell>
        <mxCell id="t2vM0j-yHt9iX_TJ1QTP-80" value="3" style="text;html=1;strokeColor=none;fillColor=none;align=center;verticalAlign=middle;whiteSpace=wrap;rounded=0;" vertex="1" parent="1">
          <mxGeometry x="200" y="-60" width="20" height="20" as="geometry" />
        </mxCell>
        <mxCell id="t2vM0j-yHt9iX_TJ1QTP-81" value="4" style="text;html=1;strokeColor=none;fillColor=none;align=center;verticalAlign=middle;whiteSpace=wrap;rounded=0;" vertex="1" parent="1">
          <mxGeometry x="220" y="-60" width="20" height="20" as="geometry" />
        </mxCell>
        <mxCell id="t2vM0j-yHt9iX_TJ1QTP-90" value="5" style="text;html=1;strokeColor=none;fillColor=none;align=center;verticalAlign=middle;whiteSpace=wrap;rounded=0;" vertex="1" parent="1">
          <mxGeometry x="240" y="-60" width="20" height="20" as="geometry" />
        </mxCell>
        <mxCell id="t2vM0j-yHt9iX_TJ1QTP-91" value="6" style="text;html=1;strokeColor=none;fillColor=none;align=center;verticalAlign=middle;whiteSpace=wrap;rounded=0;" vertex="1" parent="1">
          <mxGeometry x="260" y="-60" width="20" height="20" as="geometry" />
        </mxCell>
        <mxCell id="t2vM0j-yHt9iX_TJ1QTP-92" value="7" style="text;html=1;strokeColor=none;fillColor=none;align=center;verticalAlign=middle;whiteSpace=wrap;rounded=0;" vertex="1" parent="1">
          <mxGeometry x="280" y="-60" width="20" height="20" as="geometry" />
        </mxCell>
        <mxCell id="t2vM0j-yHt9iX_TJ1QTP-93" value="8" style="text;html=1;strokeColor=none;fillColor=none;align=center;verticalAlign=middle;whiteSpace=wrap;rounded=0;" vertex="1" parent="1">
          <mxGeometry x="300" y="-60" width="20" height="20" as="geometry" />
        </mxCell>
        <mxCell id="t2vM0j-yHt9iX_TJ1QTP-94" value="H" style="rounded=0;whiteSpace=wrap;html=1;" vertex="1" parent="1">
          <mxGeometry x="180" y="40" width="20" height="40" as="geometry" />
        </mxCell>
        <mxCell id="t2vM0j-yHt9iX_TJ1QTP-95" value="H" style="rounded=0;whiteSpace=wrap;html=1;" vertex="1" parent="1">
          <mxGeometry x="200" y="40" width="20" height="40" as="geometry" />
        </mxCell>
        <mxCell id="t2vM0j-yHt9iX_TJ1QTP-96" value="H" style="rounded=0;whiteSpace=wrap;html=1;" vertex="1" parent="1">
          <mxGeometry x="220" y="40" width="20" height="40" as="geometry" />
        </mxCell>
        <mxCell id="t2vM0j-yHt9iX_TJ1QTP-97" value="H" style="rounded=0;whiteSpace=wrap;html=1;" vertex="1" parent="1">
          <mxGeometry x="240" y="40" width="20" height="40" as="geometry" />
        </mxCell>
        <mxCell id="t2vM0j-yHt9iX_TJ1QTP-98" value="H" style="rounded=0;whiteSpace=wrap;html=1;" vertex="1" parent="1">
          <mxGeometry x="260" y="40" width="20" height="40" as="geometry" />
        </mxCell>
        <mxCell id="t2vM0j-yHt9iX_TJ1QTP-99" value="H" style="rounded=0;whiteSpace=wrap;html=1;" vertex="1" parent="1">
          <mxGeometry x="280" y="40" width="20" height="40" as="geometry" />
        </mxCell>
        <mxCell id="t2vM0j-yHt9iX_TJ1QTP-100" value="H" style="rounded=0;whiteSpace=wrap;html=1;" vertex="1" parent="1">
          <mxGeometry x="300" y="40" width="20" height="40" as="geometry" />
        </mxCell>
        <mxCell id="t2vM0j-yHt9iX_TJ1QTP-101" value="H" style="rounded=0;whiteSpace=wrap;html=1;" vertex="1" parent="1">
          <mxGeometry x="320" y="40" width="20" height="40" as="geometry" />
        </mxCell>
        <mxCell id="t2vM0j-yHt9iX_TJ1QTP-102" value="1" style="text;html=1;strokeColor=none;fillColor=none;align=center;verticalAlign=middle;whiteSpace=wrap;rounded=0;" vertex="1" parent="1">
          <mxGeometry x="180" y="20" width="20" height="20" as="geometry" />
        </mxCell>
        <mxCell id="t2vM0j-yHt9iX_TJ1QTP-103" value="2" style="text;html=1;strokeColor=none;fillColor=none;align=center;verticalAlign=middle;whiteSpace=wrap;rounded=0;" vertex="1" parent="1">
          <mxGeometry x="200" y="20" width="20" height="20" as="geometry" />
        </mxCell>
        <mxCell id="t2vM0j-yHt9iX_TJ1QTP-104" value="3" style="text;html=1;strokeColor=none;fillColor=none;align=center;verticalAlign=middle;whiteSpace=wrap;rounded=0;" vertex="1" parent="1">
          <mxGeometry x="220" y="20" width="20" height="20" as="geometry" />
        </mxCell>
        <mxCell id="t2vM0j-yHt9iX_TJ1QTP-105" value="4" style="text;html=1;strokeColor=none;fillColor=none;align=center;verticalAlign=middle;whiteSpace=wrap;rounded=0;" vertex="1" parent="1">
          <mxGeometry x="240" y="20" width="20" height="20" as="geometry" />
        </mxCell>
        <mxCell id="t2vM0j-yHt9iX_TJ1QTP-106" value="5" style="text;html=1;strokeColor=none;fillColor=none;align=center;verticalAlign=middle;whiteSpace=wrap;rounded=0;" vertex="1" parent="1">
          <mxGeometry x="260" y="20" width="20" height="20" as="geometry" />
        </mxCell>
        <mxCell id="t2vM0j-yHt9iX_TJ1QTP-107" value="6" style="text;html=1;strokeColor=none;fillColor=none;align=center;verticalAlign=middle;whiteSpace=wrap;rounded=0;" vertex="1" parent="1">
          <mxGeometry x="280" y="20" width="20" height="20" as="geometry" />
        </mxCell>
        <mxCell id="t2vM0j-yHt9iX_TJ1QTP-108" value="7" style="text;html=1;strokeColor=none;fillColor=none;align=center;verticalAlign=middle;whiteSpace=wrap;rounded=0;" vertex="1" parent="1">
          <mxGeometry x="300" y="20" width="20" height="20" as="geometry" />
        </mxCell>
        <mxCell id="t2vM0j-yHt9iX_TJ1QTP-109" value="8" style="text;html=1;strokeColor=none;fillColor=none;align=center;verticalAlign=middle;whiteSpace=wrap;rounded=0;" vertex="1" parent="1">
          <mxGeometry x="320" y="20" width="20" height="20" as="geometry" />
        </mxCell>
        <mxCell id="t2vM0j-yHt9iX_TJ1QTP-110" value="K" style="rounded=0;whiteSpace=wrap;html=1;" vertex="1" parent="1">
          <mxGeometry x="220" y="120" width="20" height="40" as="geometry" />
        </mxCell>
        <mxCell id="t2vM0j-yHt9iX_TJ1QTP-111" value="K" style="rounded=0;whiteSpace=wrap;html=1;" vertex="1" parent="1">
          <mxGeometry x="240" y="120" width="20" height="40" as="geometry" />
        </mxCell>
        <mxCell id="t2vM0j-yHt9iX_TJ1QTP-112" value="K" style="rounded=0;whiteSpace=wrap;html=1;" vertex="1" parent="1">
          <mxGeometry x="260" y="120" width="20" height="40" as="geometry" />
        </mxCell>
        <mxCell id="t2vM0j-yHt9iX_TJ1QTP-113" value="K" style="rounded=0;whiteSpace=wrap;html=1;" vertex="1" parent="1">
          <mxGeometry x="280" y="120" width="20" height="40" as="geometry" />
        </mxCell>
        <mxCell id="t2vM0j-yHt9iX_TJ1QTP-114" value="K" style="rounded=0;whiteSpace=wrap;html=1;" vertex="1" parent="1">
          <mxGeometry x="300" y="120" width="20" height="40" as="geometry" />
        </mxCell>
        <mxCell id="t2vM0j-yHt9iX_TJ1QTP-115" value="K" style="rounded=0;whiteSpace=wrap;html=1;" vertex="1" parent="1">
          <mxGeometry x="320" y="120" width="20" height="40" as="geometry" />
        </mxCell>
        <mxCell id="t2vM0j-yHt9iX_TJ1QTP-116" value="K" style="rounded=0;whiteSpace=wrap;html=1;" vertex="1" parent="1">
          <mxGeometry x="340" y="120" width="20" height="40" as="geometry" />
        </mxCell>
        <mxCell id="t2vM0j-yHt9iX_TJ1QTP-117" value="K" style="rounded=0;whiteSpace=wrap;html=1;" vertex="1" parent="1">
          <mxGeometry x="360" y="120" width="20" height="40" as="geometry" />
        </mxCell>
        <mxCell id="t2vM0j-yHt9iX_TJ1QTP-118" value="1" style="text;html=1;strokeColor=none;fillColor=none;align=center;verticalAlign=middle;whiteSpace=wrap;rounded=0;" vertex="1" parent="1">
          <mxGeometry x="220" y="100" width="20" height="20" as="geometry" />
        </mxCell>
        <mxCell id="t2vM0j-yHt9iX_TJ1QTP-119" value="2" style="text;html=1;strokeColor=none;fillColor=none;align=center;verticalAlign=middle;whiteSpace=wrap;rounded=0;" vertex="1" parent="1">
          <mxGeometry x="240" y="100" width="20" height="20" as="geometry" />
        </mxCell>
        <mxCell id="t2vM0j-yHt9iX_TJ1QTP-120" value="3" style="text;html=1;strokeColor=none;fillColor=none;align=center;verticalAlign=middle;whiteSpace=wrap;rounded=0;" vertex="1" parent="1">
          <mxGeometry x="260" y="100" width="20" height="20" as="geometry" />
        </mxCell>
        <mxCell id="t2vM0j-yHt9iX_TJ1QTP-121" value="4" style="text;html=1;strokeColor=none;fillColor=none;align=center;verticalAlign=middle;whiteSpace=wrap;rounded=0;" vertex="1" parent="1">
          <mxGeometry x="280" y="100" width="20" height="20" as="geometry" />
        </mxCell>
        <mxCell id="t2vM0j-yHt9iX_TJ1QTP-122" value="5" style="text;html=1;strokeColor=none;fillColor=none;align=center;verticalAlign=middle;whiteSpace=wrap;rounded=0;" vertex="1" parent="1">
          <mxGeometry x="300" y="100" width="20" height="20" as="geometry" />
        </mxCell>
        <mxCell id="t2vM0j-yHt9iX_TJ1QTP-123" value="6" style="text;html=1;strokeColor=none;fillColor=none;align=center;verticalAlign=middle;whiteSpace=wrap;rounded=0;" vertex="1" parent="1">
          <mxGeometry x="320" y="100" width="20" height="20" as="geometry" />
        </mxCell>
        <mxCell id="t2vM0j-yHt9iX_TJ1QTP-124" value="7" style="text;html=1;strokeColor=none;fillColor=none;align=center;verticalAlign=middle;whiteSpace=wrap;rounded=0;" vertex="1" parent="1">
          <mxGeometry x="340" y="100" width="20" height="20" as="geometry" />
        </mxCell>
        <mxCell id="t2vM0j-yHt9iX_TJ1QTP-125" value="8" style="text;html=1;strokeColor=none;fillColor=none;align=center;verticalAlign=middle;whiteSpace=wrap;rounded=0;" vertex="1" parent="1">
          <mxGeometry x="360" y="100" width="20" height="20" as="geometry" />
        </mxCell>
        <mxCell id="t2vM0j-yHt9iX_TJ1QTP-127" value="D" style="rounded=0;whiteSpace=wrap;html=1;" vertex="1" parent="1">
          <mxGeometry x="240" y="200" width="20" height="40" as="geometry" />
        </mxCell>
        <mxCell id="t2vM0j-yHt9iX_TJ1QTP-128" value="D" style="rounded=0;whiteSpace=wrap;html=1;" vertex="1" parent="1">
          <mxGeometry x="260" y="200" width="20" height="40" as="geometry" />
        </mxCell>
        <mxCell id="t2vM0j-yHt9iX_TJ1QTP-129" value="D" style="rounded=0;whiteSpace=wrap;html=1;" vertex="1" parent="1">
          <mxGeometry x="280" y="200" width="20" height="40" as="geometry" />
        </mxCell>
        <mxCell id="t2vM0j-yHt9iX_TJ1QTP-130" value="D" style="rounded=0;whiteSpace=wrap;html=1;" vertex="1" parent="1">
          <mxGeometry x="300" y="200" width="20" height="40" as="geometry" />
        </mxCell>
        <mxCell id="t2vM0j-yHt9iX_TJ1QTP-131" value="D" style="rounded=0;whiteSpace=wrap;html=1;" vertex="1" parent="1">
          <mxGeometry x="320" y="200" width="20" height="40" as="geometry" />
        </mxCell>
        <mxCell id="t2vM0j-yHt9iX_TJ1QTP-132" value="D" style="rounded=0;whiteSpace=wrap;html=1;" vertex="1" parent="1">
          <mxGeometry x="340" y="200" width="20" height="40" as="geometry" />
        </mxCell>
        <mxCell id="t2vM0j-yHt9iX_TJ1QTP-133" value="D" style="rounded=0;whiteSpace=wrap;html=1;" vertex="1" parent="1">
          <mxGeometry x="360" y="200" width="20" height="40" as="geometry" />
        </mxCell>
        <mxCell id="t2vM0j-yHt9iX_TJ1QTP-134" value="D" style="rounded=0;whiteSpace=wrap;html=1;" vertex="1" parent="1">
          <mxGeometry x="380" y="200" width="20" height="40" as="geometry" />
        </mxCell>
        <mxCell id="t2vM0j-yHt9iX_TJ1QTP-135" value="1" style="text;html=1;strokeColor=none;fillColor=none;align=center;verticalAlign=middle;whiteSpace=wrap;rounded=0;" vertex="1" parent="1">
          <mxGeometry x="240" y="180" width="20" height="20" as="geometry" />
        </mxCell>
        <mxCell id="t2vM0j-yHt9iX_TJ1QTP-136" value="2" style="text;html=1;strokeColor=none;fillColor=none;align=center;verticalAlign=middle;whiteSpace=wrap;rounded=0;" vertex="1" parent="1">
          <mxGeometry x="260" y="180" width="20" height="20" as="geometry" />
        </mxCell>
        <mxCell id="t2vM0j-yHt9iX_TJ1QTP-137" value="3" style="text;html=1;strokeColor=none;fillColor=none;align=center;verticalAlign=middle;whiteSpace=wrap;rounded=0;" vertex="1" parent="1">
          <mxGeometry x="280" y="180" width="20" height="20" as="geometry" />
        </mxCell>
        <mxCell id="t2vM0j-yHt9iX_TJ1QTP-138" value="4" style="text;html=1;strokeColor=none;fillColor=none;align=center;verticalAlign=middle;whiteSpace=wrap;rounded=0;" vertex="1" parent="1">
          <mxGeometry x="300" y="180" width="20" height="20" as="geometry" />
        </mxCell>
        <mxCell id="t2vM0j-yHt9iX_TJ1QTP-139" value="5" style="text;html=1;strokeColor=none;fillColor=none;align=center;verticalAlign=middle;whiteSpace=wrap;rounded=0;" vertex="1" parent="1">
          <mxGeometry x="320" y="180" width="20" height="20" as="geometry" />
        </mxCell>
        <mxCell id="t2vM0j-yHt9iX_TJ1QTP-140" value="6" style="text;html=1;strokeColor=none;fillColor=none;align=center;verticalAlign=middle;whiteSpace=wrap;rounded=0;" vertex="1" parent="1">
          <mxGeometry x="340" y="180" width="20" height="20" as="geometry" />
        </mxCell>
        <mxCell id="t2vM0j-yHt9iX_TJ1QTP-141" value="7" style="text;html=1;strokeColor=none;fillColor=none;align=center;verticalAlign=middle;whiteSpace=wrap;rounded=0;" vertex="1" parent="1">
          <mxGeometry x="360" y="180" width="20" height="20" as="geometry" />
        </mxCell>
        <mxCell id="t2vM0j-yHt9iX_TJ1QTP-142" value="8" style="text;html=1;strokeColor=none;fillColor=none;align=center;verticalAlign=middle;whiteSpace=wrap;rounded=0;" vertex="1" parent="1">
          <mxGeometry x="380" y="180" width="20" height="20" as="geometry" />
        </mxCell>
      </root>
    </mxGraphModel>
  </diagram>
</mxfile>
